<svg width="911" height="431.5" xmlns="http://www.w3.org/2000/svg" xmlns:xlink="http://www.w3.org/1999/xlink" fill="#ffffff"><defs><style>
  text {
    fill: #212529;
    font-family: Helvetica Neue, Helvetica, Arial, sans-serif;
    font-size: 16px;
  }

  marker, text {
    fill-opacity: 1;
  }

  * {
    overflow: visible;
  }
</style></defs><svg x="335" y="15" width="240" height="250" class="Analysis" fill="#ffffff"><g><rect width="100%" height="40" stroke="none" fill="white" class="sc-fqkvVR eDtKfR"></rect><rect y="40" width="100%" height="210" stroke="none" fill="white" class="sc-fqkvVR eDtKfR"></rect><svg height="40"><text x="50%" y="50%" dominant-baseline="middle" text-anchor="middle" font-weight="bold" pointer-events="none">Analysis</text></svg><svg x="0" y="40.5" width="239" height="30" class="+ id : UUID" fill="#ffffff"><g><rect width="100%" height="100%" stroke="none" fill="white" class="sc-fqkvVR eDtKfR"></rect><text x="10" y="50%" dominant-baseline="middle" text-anchor="start" font-weight="normal" pointer-events="none">+ id : UUID</text></g></svg><svg x="0" y="70.5" width="239" height="30" class="+ query : String" fill="#ffffff"><g><rect width="100%" height="100%" stroke="none" fill="white" class="sc-fqkvVR eDtKfR"></rect><text x="10" y="50%" dominant-baseline="middle" text-anchor="start" font-weight="normal" pointer-events="none">+ query : String</text></g></svg><svg x="0" y="100.5" width="239" height="30" class="+ type : String " fill="#ffffff"><g><rect width="100%" height="100%" stroke="none" fill="white" class="sc-fqkvVR eDtKfR"></rect><text x="10" y="50%" dominant-baseline="middle" text-anchor="start" font-weight="normal" pointer-events="none">+ type : String </text></g></svg><svg x="0" y="130.5" width="239" height="30" class="+ status : String" fill="#ffffff"><g><rect width="100%" height="100%" stroke="none" fill="white" class="sc-fqkvVR eDtKfR"></rect><text x="10" y="50%" dominant-baseline="middle" text-anchor="start" font-weight="normal" pointer-events="none">+ status : String</text></g></svg><svg x="0" y="160.5" width="239" height="30" class="+ feed_url: String" fill="#ffffff"><g><rect width="100%" height="100%" stroke="none" fill="white" class="sc-fqkvVR eDtKfR"></rect><text x="10" y="50%" dominant-baseline="middle" text-anchor="start" font-weight="normal" pointer-events="none">+ feed_url: String</text></g></svg><svg x="0" y="190.5" width="239" height="30" class="+ total_articles_processed : int" fill="#ffffff"><g><rect width="100%" height="100%" stroke="none" fill="white" class="sc-fqkvVR eDtKfR"></rect><text x="10" y="50%" dominant-baseline="middle" text-anchor="start" font-weight="normal" pointer-events="none">+ total_articles_processed : int</text></g></svg><svg x="0" y="220.5" width="239" height="30" class="+ created_at : Timestamp" fill="#ffffff"><g><rect width="100%" height="100%" stroke="none" fill="white" class="sc-fqkvVR eDtKfR"></rect><text x="10" y="50%" dominant-baseline="middle" text-anchor="start" font-weight="normal" pointer-events="none">+ created_at : Timestamp</text></g></svg><rect width="100%" height="100%" stroke="black" fill="none" class="sc-fqkvVR jAaomD"></rect><path d="M 0 40 H 240" stroke="black" fill="white" class="sc-gEvEer fkqzOi"></path></g></svg><svg x="15" y="195" width="240" height="220" class="Topic" fill="#ffffff"><g><rect width="100%" height="40" stroke="none" fill="white" class="sc-fqkvVR eDtKfR"></rect><rect y="40" width="100%" height="180" stroke="none" fill="white" class="sc-fqkvVR eDtKfR"></rect><svg height="40"><text x="50%" y="50%" dominant-baseline="middle" text-anchor="middle" font-weight="bold" pointer-events="none">Topic</text></svg><svg x="0" y="40.5" width="239" height="30" class="+ id : UUID" fill="#ffffff"><g><rect width="100%" height="100%" stroke="none" fill="white" class="sc-fqkvVR eDtKfR"></rect><text x="10" y="50%" dominant-baseline="middle" text-anchor="start" font-weight="normal" pointer-events="none">+ id : UUID</text></g></svg><svg x="0" y="70.5" width="239" height="30" class="+ analysis_id : UUID" fill="#ffffff"><g><rect width="100%" height="100%" stroke="none" fill="white" class="sc-fqkvVR eDtKfR"></rect><text x="10" y="50%" dominant-baseline="middle" text-anchor="start" font-weight="normal" pointer-events="none">+ analysis_id : UUID</text></g></svg><svg x="0" y="100.5" width="239" height="30" class="+ title : String" fill="#ffffff"><g><rect width="100%" height="100%" stroke="none" fill="white" class="sc-fqkvVR eDtKfR"></rect><text x="10" y="50%" dominant-baseline="middle" text-anchor="start" font-weight="normal" pointer-events="none">+ title : String</text></g></svg><svg x="0" y="130.5" width="239" height="30" class="+ description : String" fill="#ffffff"><g><rect width="100%" height="100%" stroke="none" fill="white" class="sc-fqkvVR eDtKfR"></rect><text x="10" y="50%" dominant-baseline="middle" text-anchor="start" font-weight="normal" pointer-events="none">+ description : String</text></g></svg><svg x="0" y="160.5" width="239" height="30" class="+ article_count : int" fill="#ffffff"><g><rect width="100%" height="100%" stroke="none" fill="white" class="sc-fqkvVR eDtKfR"></rect><text x="10" y="50%" dominant-baseline="middle" text-anchor="start" font-weight="normal" pointer-events="none">+ article_count : int</text></g></svg><svg x="0" y="190.5" width="239" height="30" class="+ relevance : int" fill="#ffffff"><g><rect width="100%" height="100%" stroke="none" fill="white" class="sc-fqkvVR eDtKfR"></rect><text x="10" y="50%" dominant-baseline="middle" text-anchor="start" font-weight="normal" pointer-events="none">+ relevance : int</text></g></svg><rect width="100%" height="100%" stroke="black" fill="none" class="sc-fqkvVR jAaomD"></rect><path d="M 0 40 H 240" stroke="black" fill="white" class="sc-gEvEer fkqzOi"></path></g></svg><svg x="655" y="185" width="240" height="220" class="Article" fill="#ffffff"><g><rect width="100%" height="40" stroke="none" fill="white" class="sc-fqkvVR eDtKfR"></rect><rect y="40" width="100%" height="180" stroke="none" fill="white" class="sc-fqkvVR eDtKfR"></rect><svg height="40"><text x="50%" y="50%" dominant-baseline="middle" text-anchor="middle" font-weight="bold" pointer-events="none">Article</text></svg><svg x="0" y="40.5" width="239" height="30" class="+ id : UUID" fill="#ffffff"><g><rect width="100%" height="100%" stroke="none" fill="white" class="sc-fqkvVR eDtKfR"></rect><text x="10" y="50%" dominant-baseline="middle" text-anchor="start" font-weight="normal" pointer-events="none">+ id : UUID</text></g></svg><svg x="0" y="70.5" width="239" height="30" class="+ external_id : String" fill="#ffffff"><g><rect width="100%" height="100%" stroke="none" fill="white" class="sc-fqkvVR eDtKfR"></rect><text x="10" y="50%" dominant-baseline="middle" text-anchor="start" font-weight="normal" pointer-events="none">+ external_id : String</text></g></svg><svg x="0" y="100.5" width="239" height="30" class="+ title : String" fill="#ffffff"><g><rect width="100%" height="100%" stroke="none" fill="white" class="sc-fqkvVR eDtKfR"></rect><text x="10" y="50%" dominant-baseline="middle" text-anchor="start" font-weight="normal" pointer-events="none">+ title : String</text></g></svg><svg x="0" y="130.5" width="239" height="30" class="+ link : String" fill="#ffffff"><g><rect width="100%" height="100%" stroke="none" fill="white" class="sc-fqkvVR eDtKfR"></rect><text x="10" y="50%" dominant-baseline="middle" text-anchor="start" font-weight="normal" pointer-events="none">+ link : String</text></g></svg><svg x="0" y="160.5" width="239" height="30" class="+ snippet : String" fill="#ffffff"><g><rect width="100%" height="100%" stroke="none" fill="white" class="sc-fqkvVR eDtKfR"></rect><text x="10" y="50%" dominant-baseline="middle" text-anchor="start" font-weight="normal" pointer-events="none">+ snippet : String</text></g></svg><svg x="0" y="190.5" width="239" height="30" class="+ embedding : vector(768)" fill="#ffffff"><g><rect width="100%" height="100%" stroke="none" fill="white" class="sc-fqkvVR eDtKfR"></rect><text x="10" y="50%" dominant-baseline="middle" text-anchor="start" font-weight="normal" pointer-events="none">+ embedding : vector(768)</text></g></svg><rect width="100%" height="100%" stroke="black" fill="none" class="sc-fqkvVR jAaomD"></rect><path d="M 0 40 H 240" stroke="black" fill="white" class="sc-gEvEer fkqzOi"></path></g></svg><svg x="335" y="315" width="240" height="100" class="TopicArticle" fill="#ffffff"><g><rect width="100%" height="40" stroke="none" fill="white" class="sc-fqkvVR eDtKfR"></rect><rect y="40" width="100%" height="60" stroke="none" fill="white" class="sc-fqkvVR eDtKfR"></rect><svg height="40"><text x="50%" y="50%" dominant-baseline="middle" text-anchor="middle" font-weight="bold" pointer-events="none">TopicArticle</text></svg><svg x="0" y="40.5" width="239" height="30" class="+ topic_id : UUID" fill="#ffffff"><g><rect width="100%" height="100%" stroke="none" fill="white" class="sc-fqkvVR eDtKfR"></rect><text x="10" y="50%" dominant-baseline="middle" text-anchor="start" font-weight="normal" pointer-events="none">+ topic_id : UUID</text></g></svg><svg x="0" y="70.5" width="239" height="30" class="+ article_id : UUID" fill="#ffffff"><g><rect width="100%" height="100%" stroke="none" fill="white" class="sc-fqkvVR eDtKfR"></rect><text x="10" y="50%" dominant-baseline="middle" text-anchor="start" font-weight="normal" pointer-events="none">+ article_id : UUID</text></g></svg><rect width="100%" height="100%" stroke="black" fill="none" class="sc-fqkvVR jAaomD"></rect><path d="M 0 40 H 240" stroke="black" fill="white" class="sc-gEvEer fkqzOi"></path></g></svg><svg x="575" y="350" width="80" height="48" class="" fill="#ffffff"><g><polyline points="0 10,80 10" stroke-width="1" marker-end="url(#marker-d361bb8e-b060-413c-861f-63af610b5ea9)" stroke="black" fill="none" class="sc-aXZVg eMElBf"></polyline><text x="8" y="10" dy="21" text-anchor="start" pointer-events="none">*</text><text x="72" y="10" dy="21" text-anchor="end" pointer-events="none">1</text><text x="8" y="10" dy="-10" text-anchor="start" pointer-events="none"></text><text x="72" y="10" dy="-10" text-anchor="end" pointer-events="none"></text></g></svg><svg x="255" y="355" width="80" height="48" class="" fill="#ffffff"><g><polyline points="80 10,0 10" stroke-width="1" marker-end="url(#marker-f905aede-7609-4399-aab1-bc05b9827a68)" stroke="black" fill="none" class="sc-aXZVg eMElBf"></polyline><text x="72" y="10" dy="21" text-anchor="end" pointer-events="none">*</text><text x="8" y="10" dy="21" text-anchor="start" pointer-events="none">1</text><text x="72" y="10" dy="-10" text-anchor="end" pointer-events="none"></text><text x="8" y="10" dy="-10" text-anchor="start" pointer-events="none"></text></g></svg><svg x="130" y="130" width="205" height="74" class="" fill="#ffffff"><g><polyline points="5 65,5 10,205 10" stroke-width="1" marker-end="url(#marker-01fd707d-6d96-4b37-9b17-1800e561c57c)" stroke="black" fill="none" class="sc-aXZVg eMElBf"></polyline><text x="5" y="57" dx="5" text-anchor="start" pointer-events="none">*</text><text x="197" y="10" dy="21" text-anchor="end" pointer-events="none">1</text><text x="5" y="57" dx="-5" text-anchor="end" pointer-events="none"></text><text x="197" y="10" dy="-10" text-anchor="end" pointer-events="none"></text></g></svg></svg>