<svg width="771" height="741" xmlns="http://www.w3.org/2000/svg" xmlns:xlink="http://www.w3.org/1999/xlink" fill="#ffffff"><defs><style>
  text {
    fill: #212529;
    font-family: Helvetica Neue, Helvetica, Arial, sans-serif;
    font-size: 16px;
  }

  marker, text {
    fill-opacity: 1;
  }

  * {
    overflow: visible;
  }
</style></defs><svg x="15" y="165" width="80" height="140" class="User" fill="#ffffff"><g><rect width="100%" height="100%" fill="none"></rect><g stroke="black" stroke-width="2"><circle cx="40" cy="25" r="15" stroke="black" fill="white" class="sc-iGgWBj fYmGgq"></circle><line x1="40" y1="40" x2="40" y2="80" stroke="black" class="sc-imWYAI kESMEa"></line><line x1="10" y1="50" x2="70" y2="50" stroke="black" class="sc-imWYAI kESMEa"></line><line x1="40" y1="80" x2="10" y2="110" stroke="black" class="sc-imWYAI kESMEa"></line><line x1="40" y1="80" x2="70" y2="110" stroke="black" class="sc-imWYAI kESMEa"></line></g><text x="40" y="130" dominant-baseline="middle" text-anchor="middle" font-weight="bold" pointer-events="none">User</text></g></svg><svg x="255" y="15" width="500" height="710" class="Niche Explorer" fill="#ffffff"><g><rect width="100%" height="100%" stroke="black" fill="white" class="sc-fqkvVR uHYUy"></rect><text x="50%" y="16" dominant-baseline="middle" text-anchor="middle" font-weight="bold" pointer-events="none">Niche Explorer</text></g></svg><svg x="425" y="55" width="160" height="100" class="Enter Query" fill="#ffffff"><g><ellipse cx="50%" cy="50%" rx="50%" ry="50%" stroke="black" fill="white" class="sc-kAyceB ldFMTf"></ellipse><text x="50%" y="50%" dominant-baseline="middle" text-anchor="middle" font-weight="bold" pointer-events="none">Enter Query</text></g></svg><svg x="385" y="165" width="240" height="100" class="Customize Settings" fill="#ffffff"><g><ellipse cx="50%" cy="50%" rx="50%" ry="50%" stroke="black" fill="white" class="sc-kAyceB ldFMTf"></ellipse><text x="50%" y="50%" dominant-baseline="middle" text-anchor="middle" font-weight="bold" pointer-events="none">Customize Settings</text></g></svg><svg x="325" y="275" width="350" height="100" class="View Real-Time Analysis Progress" fill="#ffffff"><g><ellipse cx="50%" cy="50%" rx="50%" ry="50%" stroke="black" fill="white" class="sc-kAyceB ldFMTf"></ellipse><text x="50%" y="50%" dominant-baseline="middle" text-anchor="middle" font-weight="bold" pointer-events="none">View Real-Time Analysis Progress</text></g></svg><svg x="405" y="495" width="190" height="100" class="View Analysis History" fill="#ffffff"><g><ellipse cx="50%" cy="50%" rx="50%" ry="50%" stroke="black" fill="white" class="sc-kAyceB ldFMTf"></ellipse><text x="50%" y="50%" dominant-baseline="middle" text-anchor="middle" font-weight="bold" pointer-events="none">View Analysis History</text></g></svg><svg x="425" y="605" width="160" height="100" class="Delete Analysis" fill="#ffffff"><g><ellipse cx="50%" cy="50%" rx="50%" ry="50%" stroke="black" fill="white" class="sc-kAyceB ldFMTf"></ellipse><text x="50%" y="50%" dominant-baseline="middle" text-anchor="middle" font-weight="bold" pointer-events="none">Delete Analysis</text></g></svg><svg x="345" y="385" width="320" height="100" class="Explore Discovered Topics and Articles" fill="#ffffff"><g><ellipse cx="50%" cy="50%" rx="50%" ry="50%" stroke="black" fill="white" class="sc-kAyceB ldFMTf"></ellipse><text x="50%" y="50%" dominant-baseline="middle" text-anchor="middle" font-weight="bold" pointer-events="none">Explore Discovered Topics and Articles</text></g></svg><svg x="95" y="105" width="330" height="130" class="" fill="#ffffff"><g><path id="textpath-daa43176-055c-4c6b-9f11-cc94c097c495" d="
        M 330 -10
        L 0 120
    "></path><text dominant-baseline="middle" text-anchor="middle" font-weight="bold" pointer-events="none" dy="20px" transform="
            translate(165, 65)
            rotate(180)
            translate(-165, -65)
          "><textPath xlink:href="#textpath-daa43176-055c-4c6b-9f11-cc94c097c495" startOffset="50%"></textPath></text><polyline points="330 0,0 130" stroke-width="1" stroke="black" fill="none" class="sc-aXZVg eMElBf"></polyline></g></svg><svg x="95" y="215" width="290" height="20" class="" fill="#ffffff"><g><path id="textpath-d90703fb-886e-49dc-ad5f-a66b33a2a44f" d="
        M 290 -10
        L 0 10
    "></path><text dominant-baseline="middle" text-anchor="middle" font-weight="bold" pointer-events="none" dy="20px" transform="
            translate(145, 10)
            rotate(180)
            translate(-145, -10)
          "><textPath xlink:href="#textpath-d90703fb-886e-49dc-ad5f-a66b33a2a44f" startOffset="50%"></textPath></text><polyline points="290 0,0 20" stroke-width="1" stroke="black" fill="none" class="sc-aXZVg eMElBf"></polyline></g></svg><svg x="95" y="235" width="230" height="90" class="" fill="#ffffff"><g><path id="textpath-a087f3a2-6999-44d0-8d60-cfafaf496c96" d="
        M 230 80
        L 0 -10
    "></path><text dominant-baseline="middle" text-anchor="middle" font-weight="bold" pointer-events="none" dy="20px" transform="
            translate(115, 45)
            rotate(180)
            translate(-115, -45)
          "><textPath xlink:href="#textpath-a087f3a2-6999-44d0-8d60-cfafaf496c96" startOffset="50%"></textPath></text><polyline points="230 90,0 0" stroke-width="1" stroke="black" fill="none" class="sc-aXZVg eMElBf"></polyline></g></svg><svg x="95" y="235" width="250" height="200" class="" fill="#ffffff"><g><path id="textpath-037007b4-c6fb-470a-8b95-8fe9734a3119" d="
        M 250 190
        L 0 -10
    "></path><text dominant-baseline="middle" text-anchor="middle" font-weight="bold" pointer-events="none" dy="20px" transform="
            translate(125, 100)
            rotate(180)
            translate(-125, -100)
          "><textPath xlink:href="#textpath-037007b4-c6fb-470a-8b95-8fe9734a3119" startOffset="50%"></textPath></text><polyline points="250 200,0 0" stroke-width="1" stroke="black" fill="none" class="sc-aXZVg eMElBf"></polyline></g></svg><svg x="95" y="235" width="310" height="310" class="" fill="#ffffff"><g><path id="textpath-ce8de507-1540-4ed3-92ff-d3e711d48ab0" d="
        M 310 300
        L 0 -10
    "></path><text dominant-baseline="middle" text-anchor="middle" font-weight="bold" pointer-events="none" dy="20px" transform="
            translate(155, 155)
            rotate(180)
            translate(-155, -155)
          "><textPath xlink:href="#textpath-ce8de507-1540-4ed3-92ff-d3e711d48ab0" startOffset="50%"></textPath></text><polyline points="310 310,0 0" stroke-width="1" stroke="black" fill="none" class="sc-aXZVg eMElBf"></polyline></g></svg><svg x="95" y="235" width="330" height="420" class="" fill="#ffffff"><g><path id="textpath-15a4b42d-a6bd-40cf-abdb-c03a8704afb5" d="
        M 330 410
        L 0 -10
    "></path><text dominant-baseline="middle" text-anchor="middle" font-weight="bold" pointer-events="none" dy="20px" transform="
            translate(165, 210)
            rotate(180)
            translate(-165, -210)
          "><textPath xlink:href="#textpath-15a4b42d-a6bd-40cf-abdb-c03a8704afb5" startOffset="50%"></textPath></text><polyline points="330 420,0 0" stroke-width="1" stroke="black" fill="none" class="sc-aXZVg eMElBf"></polyline></g></svg></svg>